<svg height="20" viewBox="0 0 20 20" width="20" xmlns="http://www.w3.org/2000/svg"><path d="m4.74975901 12c.37643679 0 .68807859.2774203.74162969.6389651l.00812932.1107939v2.4953466c0 .4140805-.33567855.749759-.74975901.749759-.37643679 0-.6880786-.2774202-.7416297-.6389651l-.00812931-.1107939v-2.4953466c0-.4140805.33567854-.749759.74975901-.749759zm3-2c.37643679 0 .68807859.2774203.74162969.6389651l.00812932.1107939v4.4953466c0 .4140805-.33567855.749759-.74975901.749759-.37643679 0-.6880786-.2774202-.7416297-.6389651l-.00812931-.1107939v-4.4953466c0-.4140805.33567854-.749759.74975901-.749759zm2.99999999-2c.3764368 0 .6880786.27742028.7416297.63896512l.0081293.11079389v6.50048199c0 .4140805-.3356785.749759-.749759.749759-.3764368 0-.6880786-.2774203-.7416297-.6389651l-.0081293-.1107939v-6.50048199c0-.41408047.3356785-.74975901.749759-.74975901zm3-2c.3764368 0 .6880786.27742028.7416297.63896512l.0081293.11079389v8.50048199c0 .4140805-.3356785.749759-.749759.749759-.3764368 0-.6880786-.2774203-.7416297-.6389651l-.0081293-.1107939v-8.50048199c0-.41408047.3356785-.74975901.749759-.74975901z" fill="#212121"/></svg>